HIERARCHY
ROOT Hips
{
	OFFSET 0.000000 0.000000 0.000000
	CHANNELS 6 Xposition Yposition Zposition Zrotation Yrotation Xrotation 
	JOINT LeftUpLeg_virtual
	{
		OFFSET 0.000000 0.000000 0.000000
		CHANNELS 3 Zrotation Yrotation Xrotation
		JOINT LeftUpLeg
		{
			OFFSET 10.205400 -3.823500 0.155100
			CHANNELS 3 Zrotation Yrotation Xrotation
			JOINT LeftLeg
			{
				OFFSET 0.708757 -12.982077 0.567790
				CHANNELS 3 Zrotation Yrotation Xrotation
				JOINT LeftFoot
				{
					OFFSET -0.708756 -10.717838 -2.184338
					CHANNELS 3 Zrotation Yrotation Xrotation
					JOINT LeftToeBase
					{
						OFFSET 0.108149 -7.191104 7.560241
						CHANNELS 3 Zrotation Yrotation Xrotation
						End Site
						{
							OFFSET 0.000000 0.000000 0.000000
						}
					}
				}
			}
		}
	}
	JOINT RightUpLeg_virtual
	{
		OFFSET 0.000000 0.000000 0.000000
		CHANNELS 3 Zrotation Yrotation Xrotation
		JOINT RightUpLeg
		{
			OFFSET -10.205400 -3.823500 0.005500
			CHANNELS 3 Zrotation Yrotation Xrotation
			JOINT RightLeg
			{
				OFFSET -0.708756 -12.982134 0.610632
				CHANNELS 3 Zrotation Yrotation Xrotation
				JOINT RightFoot
				{
					OFFSET 0.708754 -10.717769 -1.945823
					CHANNELS 3 Zrotation Yrotation Xrotation
					JOINT RightToeBase
					{
						OFFSET -0.108140 -7.191069 7.372968
						CHANNELS 3 Zrotation Yrotation Xrotation
						End Site
						{
							OFFSET 0.000000 0.000000 0.000000
						}
					}
				}
			}
		}
	}
	JOINT Spine_virtual
	{
		OFFSET 0.000000 0.000000 0.000000
		CHANNELS 3 Zrotation Yrotation Xrotation
		JOINT Spine
		{
			OFFSET 0.000000 6.876099 0.125700
			CHANNELS 3 Zrotation Yrotation Xrotation
			JOINT Spine1
			{
				OFFSET 0.000000 8.022060 0.146608
				CHANNELS 3 Zrotation Yrotation Xrotation
				JOINT Spine2
				{
					OFFSET 0.000000 9.168068 0.167552
					CHANNELS 3 Zrotation Yrotation Xrotation
					JOINT Neck_virtual
					{
						OFFSET 0.000000 0.000000 0.000000
						CHANNELS 3 Zrotation Yrotation Xrotation
						JOINT Neck
						{
							OFFSET 0.000000 10.314075 0.188496
							CHANNELS 3 Zrotation Yrotation Xrotation
							JOINT Head
							{
								OFFSET 0.000000 7.643700 -2.377400
								CHANNELS 3 Zrotation Yrotation Xrotation
								End Site
								{
									OFFSET 0.000000 0.000000 0.000000
								}
							}
						}
					}
					JOINT LeftShoulder_virtual
					{
						OFFSET 0.000000 0.000000 0.000000
						CHANNELS 3 Zrotation Yrotation Xrotation
						JOINT LeftShoulder
						{
							OFFSET 4.392200 8.824978 0.174984
							CHANNELS 3 Zrotation Yrotation Xrotation
							JOINT LeftArm
							{
								OFFSET 8.771219 -2.981674 -0.026999
								CHANNELS 3 Zrotation Yrotation Xrotation
								JOINT LeftForeArm
								{
									OFFSET 8.512804 0.000000 -0.000000
									CHANNELS 3 Zrotation Yrotation Xrotation
									JOINT LeftHand
									{
										OFFSET 18.484802 0.000000 -0.000000
										CHANNELS 3 Zrotation Yrotation Xrotation
										End Site
										{
											OFFSET 0.000000 0.000000 0.000000
										}
									}
								}
							}
						}
					}
					JOINT RightShoulder_virtual
					{
						OFFSET 0.000000 0.000000 0.000000
						CHANNELS 3 Zrotation Yrotation Xrotation
						JOINT RightShoulder
						{
							OFFSET -4.392200 8.824993 0.141379
							CHANNELS 3 Zrotation Yrotation Xrotation
							JOINT RightArm
							{
								OFFSET -8.771282 -2.981682 -0.094208
								CHANNELS 3 Zrotation Yrotation Xrotation
								JOINT RightForeArm
								{
									OFFSET -8.494598 0.000000 0.000000
									CHANNELS 3 Zrotation Yrotation Xrotation
									JOINT RightHand
									{
										OFFSET -18.483803 0.000000 0.000001
										CHANNELS 3 Zrotation Yrotation Xrotation
										End Site
										{
											OFFSET 0.000000 0.000000 0.000000
										}
									}
								}
							}
						}
					}
				}
			}
		}
	}
}
MOTION
Frames: 5
Frame Time: 0.033333
0.958228 36.337032 -2.968152 179.944380 -12.066373 179.652772 -2.484766 -6.613692 10.128594 2.221917 2.711867 -11.732036 4.999954 3.971230 16.118232 -3.998328 -3.281028 9.722369 0.000000 0.000000 0.000000 2.172768 -7.699876 9.228141 -2.908697 -9.407437 -0.788080 -4.783780 2.142800 10.874623 14.838847 8.263520 7.860750 0.000000 0.000000 0.000000 0.053887 -2.492858 -4.169262 2.283141 1.915428 -16.869351 -0.431983 -0.802958 14.339726 -0.026991 0.033593 -0.105933 -0.650402 1.543025 15.251811 -2.059958 2.231817 20.212777 0.000000 0.000000 0.000000 1.205603 2.079983 12.365478 -13.982507 -16.426197 7.729497 -39.912422 0.139972 34.292734 -7.981530 -80.161511 23.905666 0.000000 0.000000 0.000000 -3.463996 3.885548 11.261109 17.641535 21.346298 9.457474 30.848269 12.485730 27.757803 -171.292497 71.252219 -171.227542 0.000000 0.000000 0.000000 
1.004666 36.325329 -3.061910 179.960048 -11.636744 179.699149 -2.517200 -6.511197 10.082444 2.213990 2.723350 -11.460182 5.291731 3.683962 16.160571 -4.145045 -3.138939 9.433306 0.000000 0.000000 0.000000 2.122492 -7.664241 9.236772 -2.693596 -9.058497 -0.883597 -4.893402 2.444380 10.847194 14.853315 8.133003 7.970267 0.000000 0.000000 0.000000 -0.048207 -2.575952 -4.255469 2.540982 2.150266 -16.710865 -0.266626 -0.776541 14.246254 -0.002452 0.139387 -0.101503 -0.559933 1.409750 15.218445 -1.382951 1.808682 19.439586 0.000000 0.000000 0.000000 1.236115 1.796745 12.377378 -14.180565 -14.999879 7.688960 -41.742353 5.033384 32.140087 -16.762293 -83.729363 33.564584 0.000000 0.000000 0.000000 -3.381320 3.704103 11.185666 18.104632 19.846875 9.592099 32.808397 8.269882 24.733633 -169.449016 71.743638 -169.965023 0.000000 0.000000 0.000000 
1.061957 36.313847 -3.190755 179.923138 -11.119521 179.797476 -2.658640 -6.318856 10.079274 2.347361 2.490018 -11.155698 5.650977 3.792991 16.369930 -4.382552 -3.021945 9.123597 0.000000 0.000000 0.000000 2.027235 -7.450860 9.259039 -2.382523 -8.541029 -1.077974 -5.106128 2.740523 10.841985 14.896882 7.941877 8.026792 0.000000 0.000000 0.000000 -0.216650 -2.349359 -4.464864 2.796247 2.130055 -16.592551 -0.217961 -1.017160 14.258728 -0.042563 0.044557 -0.056729 -0.469469 1.304978 15.132317 -0.589071 1.216745 18.652603 0.000000 0.000000 0.000000 1.372287 1.737362 12.270029 -14.205678 -13.384773 7.763162 -43.335720 9.783281 30.503533 -32.592713 -86.525540 50.406929 0.000000 0.000000 0.000000 -3.240196 3.684218 11.192091 18.734142 18.432208 9.714148 35.170782 4.177119 21.431556 -167.510212 71.966459 -168.687914 0.000000 0.000000 0.000000 
1.130794 36.302876 -3.323224 179.914764 -10.477094 179.885244 -2.812576 -6.228814 10.075087 2.512746 2.263315 -10.963740 6.077024 3.842191 16.779915 -4.583568 -2.902908 8.833975 0.000000 0.000000 0.000000 1.955137 -7.111399 9.329843 -2.038083 -7.777916 -1.336054 -5.396134 2.799047 10.923432 15.010801 7.789073 8.029745 0.000000 0.000000 0.000000 -0.341316 -2.276395 -4.710857 3.045967 2.392735 -16.518567 -0.084220 -0.943107 14.239977 0.025048 0.016658 -0.040351 -0.352601 1.132250 15.181217 0.241845 0.588713 18.014725 0.000000 0.000000 0.000000 1.398047 1.399665 12.370763 -14.089150 -12.091556 7.781839 -44.670714 13.981941 29.331489 -63.518628 -87.946335 82.454508 0.000000 0.000000 0.000000 -3.177442 3.421992 11.183549 19.529172 16.736438 9.872516 37.890181 0.485330 18.229539 -165.384425 72.039255 -167.276469 0.000000 0.000000 0.000000 
1.211912 36.284695 -3.452885 179.902525 -9.664482 -179.956770 -3.033353 -6.136787 10.077130 2.723307 2.227697 -11.012842 6.503133 3.877582 17.746717 -4.778842 -2.807937 8.103538 0.000000 0.000000 0.000000 1.881694 -6.628023 9.463780 -1.590500 -6.869350 -1.538315 -5.740379 2.868904 11.211945 15.034776 7.571827 7.955203 0.000000 0.000000 0.000000 -0.417885 -2.224624 -5.014421 3.307537 2.477423 -16.470047 -0.013174 -1.047550 14.182364 0.011912 0.009946 -0.000189 -0.283196 1.047833 15.202999 1.139393 0.007646 17.500005 0.000000 0.000000 0.000000 1.439157 1.327942 12.330558 -13.884169 -10.769041 7.638569 -45.721573 17.382925 28.673660 -92.269340 -88.096176 112.319449 0.000000 0.000000 0.000000 -3.132433 3.325185 11.279580 20.348831 15.359248 9.730159 40.836895 -2.561797 15.601703 -163.374245 72.070517 -165.982572 0.000000 0.000000 0.000000 
